<?xml version="1.0" encoding="utf-8"?>
<!-- Generator: Adobe Illustrator 21.1.0, SVG Export Plug-In . SVG Version: 6.00 Build 0)  -->
<svg version="1.0" id="Layer_1" xmlns="http://www.w3.org/2000/svg" xmlns:xlink="http://www.w3.org/1999/xlink" x="0px" y="0px"
	 viewBox="0 0 1362 282" style="enable-background:new 0 0 1362 282;" xml:space="preserve">
<style type="text/css">
	.st0{fill:none;stroke:#1B7A1D;stroke-width:5;stroke-linecap:round;stroke-linejoin:round;stroke-miterlimit:10;}
	.st1{fill:none;stroke:#1B7A1D;stroke-width:5;stroke-linejoin:round;stroke-miterlimit:10;}
	.st2{fill:none;stroke:#1B7A1D;stroke-width:3;stroke-linecap:round;stroke-linejoin:round;stroke-miterlimit:10;}
	.st3{fill:#FFFFFF;}
	.st4{fill:none;stroke:#000000;stroke-width:3;stroke-linecap:round;stroke-linejoin:round;stroke-miterlimit:10;}
	.st5{fill:none;stroke:#424242;stroke-width:3;stroke-linecap:round;stroke-linejoin:round;stroke-miterlimit:10;}
	.st6{fill:none;stroke:#1B7A1D;stroke-width:10;stroke-linecap:round;stroke-linejoin:round;stroke-miterlimit:10;}
	.st7{fill:#666666;}
	.st8{fill:#1B7A1D;}
	.st9{fill:#51A851;}
	.st10{fill:#424242;}
	.st11{fill:none;stroke:#FFFFFF;stroke-width:2;stroke-miterlimit:10;}
	.st12{fill:none;stroke:#969696;stroke-width:3;stroke-linecap:round;stroke-linejoin:round;stroke-miterlimit:10;}
	.st13{fill:none;stroke:#666766;stroke-miterlimit:10;}
</style>
<g>
	<path d="M557.9,246.4H542V142H405.7v104.3h-15.9V28.6h15.9v101.6H542V28.6h15.9V246.4z"/>
	<path d="M642.7,90.8c11,0,20.8,1.9,29.5,5.6c8.7,3.7,16,9.1,21.9,15.9c5.9,6.9,10.5,15.2,13.6,24.9c3.1,9.7,4.7,20.5,4.7,32.5
		c0,12-1.6,22.8-4.7,32.5c-3.1,9.6-7.7,17.9-13.6,24.8c-6,6.9-13.3,12.2-21.9,15.9c-8.7,3.7-18.5,5.5-29.5,5.5
		c-11,0-20.8-1.8-29.5-5.5c-8.7-3.7-16-9-22-15.9c-6-6.9-10.6-15.1-13.7-24.8c-3.1-9.6-4.7-20.5-4.7-32.5c0-12,1.6-22.9,4.7-32.5
		c3.1-9.7,7.7-18,13.7-24.9c6-6.9,13.3-12.2,22-15.9C621.9,92.6,631.7,90.8,642.7,90.8z M642.7,236.8c9.1,0,17.1-1.6,23.9-4.7
		c6.8-3.1,12.5-7.6,17.1-13.5c4.6-5.8,8-12.9,10.2-21.2c2.3-8.3,3.4-17.5,3.4-27.8c0-10.2-1.1-19.4-3.4-27.7
		c-2.3-8.3-5.7-15.4-10.2-21.3c-4.6-5.9-10.3-10.4-17.1-13.6c-6.8-3.2-14.8-4.8-23.9-4.8c-9.1,0-17.1,1.6-23.9,4.8
		c-6.8,3.2-12.5,7.7-17.1,13.6c-4.6,5.9-8,13-10.3,21.3c-2.3,8.3-3.5,17.5-3.5,27.7c0,10.3,1.2,19.5,3.5,27.8
		c2.3,8.3,5.7,15.3,10.3,21.2c4.6,5.8,10.3,10.3,17.1,13.5C625.6,235.3,633.5,236.8,642.7,236.8z"/>
	<path d="M720.1,246.4V93.2h8c2.7,0,4.2,1.3,4.6,3.8l1.4,22.2c3-4.2,6.2-8.1,9.5-11.5c3.4-3.5,7-6.5,10.8-9
		c3.8-2.5,7.9-4.5,12.3-5.8c4.4-1.4,9-2.1,13.8-2.1c11.2,0,20.1,3.3,26.8,9.8c6.7,6.5,11.2,15.6,13.5,27.2
		c1.8-6.4,4.4-11.8,7.8-16.5c3.3-4.6,7.1-8.4,11.4-11.5c4.3-3,9-5.3,14.1-6.8c5.1-1.5,10.3-2.2,15.6-2.2c7.6,0,14.4,1.3,20.4,3.8
		c6,2.5,11.2,6.2,15.4,11.2c4.3,4.9,7.5,11,9.8,18.2c2.3,7.2,3.4,15.4,3.4,24.6v97.9h-14.6v-97.9c0-15-3.2-26.4-9.7-34.2
		s-15.7-11.8-27.7-11.8c-5.3,0-10.4,1-15.3,2.9c-4.9,1.9-9.2,4.8-12.9,8.7c-3.7,3.8-6.7,8.6-8.9,14.4c-2.2,5.7-3.3,12.4-3.3,20v97.9
		h-14.6v-97.9c0-14.9-3-26.3-8.9-34.2c-6-7.9-14.6-11.9-26-11.9c-8.3,0-16,2.5-23.1,7.5c-7.1,5-13.4,11.9-18.9,20.7v115.7H720.1z"/>
	<path d="M935.7,246.4V22.4h14.6l0.2,97.6c6.8-9,14.6-16.2,23.5-21.4s19-7.8,30.2-7.8c18.8,0,33.4,6.5,43.9,19.5
		c10.5,13,15.8,32.5,15.8,58.6c0,11.2-1.5,21.6-4.4,31.3s-7.2,18.1-12.9,25.2c-5.7,7.1-12.7,12.8-21,16.9
		c-8.3,4.1-17.8,6.2-28.6,6.2c-10.7,0-19.9-2.1-27.6-6.2c-7.7-4.2-14.3-10.3-19.9-18.4l-0.9,18.8c-0.3,2.6-1.7,3.8-4.1,3.8H935.7z
		 M999.9,102.5c-10.2,0-19.4,2.6-27.6,7.8c-8.2,5.2-15.6,12.5-22,21.9V213c5.9,8.8,12.3,15,19.4,18.5c7.1,3.5,15.3,5.3,24.5,5.3
		c9,0,17-1.6,23.7-4.9c6.8-3.3,12.5-7.9,17-13.9c4.6-6,8-13.2,10.3-21.5c2.3-8.4,3.5-17.6,3.5-27.6c0-22.8-4.2-39.5-12.6-50.2
		C1027.7,107.8,1015.6,102.5,999.9,102.5z"/>
	<path d="M1129.7,90.8c11,0,20.8,1.9,29.5,5.6c8.7,3.7,16,9.1,21.9,15.9c5.9,6.9,10.5,15.2,13.6,24.9c3.1,9.7,4.7,20.5,4.7,32.5
		c0,12-1.6,22.8-4.7,32.5c-3.1,9.6-7.7,17.9-13.6,24.8c-6,6.9-13.3,12.2-21.9,15.9c-8.7,3.7-18.5,5.5-29.5,5.5
		c-11,0-20.8-1.8-29.5-5.5c-8.7-3.7-16-9-22-15.9c-6-6.9-10.6-15.1-13.7-24.8c-3.1-9.6-4.7-20.5-4.7-32.5c0-12,1.6-22.9,4.7-32.5
		c3.1-9.7,7.7-18,13.7-24.9c6-6.9,13.3-12.2,22-15.9C1108.9,92.6,1118.7,90.8,1129.7,90.8z M1129.7,236.8c9.1,0,17.1-1.6,23.9-4.7
		c6.8-3.1,12.5-7.6,17.1-13.5c4.6-5.8,8-12.9,10.2-21.2c2.3-8.3,3.4-17.5,3.4-27.8c0-10.2-1.1-19.4-3.4-27.7
		c-2.3-8.3-5.7-15.4-10.2-21.3c-4.6-5.9-10.3-10.4-17.1-13.6c-6.8-3.2-14.8-4.8-23.9-4.8c-9.1,0-17.1,1.6-23.9,4.8
		c-6.8,3.2-12.5,7.7-17.1,13.6c-4.6,5.9-8,13-10.3,21.3c-2.3,8.3-3.5,17.5-3.5,27.7c0,10.3,1.2,19.5,3.5,27.8
		c2.3,8.3,5.7,15.3,10.3,21.2c4.6,5.8,10.3,10.3,17.1,13.5C1112.6,235.3,1120.6,236.8,1129.7,236.8z"/>
	<path d="M1265.4,90.8c11,0,20.8,1.9,29.5,5.6c8.7,3.7,16,9.1,21.9,15.9c5.9,6.9,10.5,15.2,13.6,24.9c3.1,9.7,4.7,20.5,4.7,32.5
		c0,12-1.6,22.8-4.7,32.5c-3.1,9.6-7.7,17.9-13.6,24.8c-6,6.9-13.3,12.2-21.9,15.9c-8.7,3.7-18.5,5.5-29.5,5.5
		c-11,0-20.8-1.8-29.5-5.5c-8.7-3.7-16-9-22-15.9c-6-6.9-10.6-15.1-13.7-24.8c-3.1-9.6-4.7-20.5-4.7-32.5c0-12,1.6-22.9,4.7-32.5
		c3.1-9.7,7.7-18,13.7-24.9c6-6.9,13.3-12.2,22-15.9C1244.6,92.6,1254.5,90.8,1265.4,90.8z M1265.4,236.8c9.1,0,17.1-1.6,23.9-4.7
		c6.8-3.1,12.5-7.6,17.1-13.5c4.6-5.8,8-12.9,10.2-21.2c2.3-8.3,3.4-17.5,3.4-27.8c0-10.2-1.1-19.4-3.4-27.7
		c-2.3-8.3-5.7-15.4-10.2-21.3c-4.6-5.9-10.3-10.4-17.1-13.6c-6.8-3.2-14.8-4.8-23.9-4.8c-9.1,0-17.1,1.6-23.9,4.8
		c-6.8,3.2-12.5,7.7-17.1,13.6c-4.6,5.9-8,13-10.3,21.3c-2.3,8.3-3.5,17.5-3.5,27.7c0,10.3,1.2,19.5,3.5,27.8
		c2.3,8.3,5.7,15.3,10.3,21.2c4.6,5.8,10.3,10.3,17.1,13.5C1248.3,235.3,1256.3,236.8,1265.4,236.8z"/>
</g>
<g>
	<path d="M1314.8,12.3v5.9h-10.1v27.3h-7.1V18.2h-10.1v-5.9H1314.8z M1338,30.5c0.2,0.5,0.4,1,0.6,1.5c0.2,0.5,0.4,1,0.5,1.5
		c0.2-0.5,0.4-1,0.5-1.5c0.1-0.5,0.4-1,0.7-1.5l9.5-17c0.3-0.5,0.7-0.8,1-1c0.3-0.1,0.7-0.2,1.3-0.2h5.9v33.2h-6.2V25.1l0.5-4.2
		l-10.3,18.9c-0.5,1-1.3,1.6-2.5,1.6h-1c-1.2,0-2-0.5-2.4-1.6L1325.9,21l0.4,4v20.5h-6.2V12.3h6c0.6,0,1.1,0.1,1.3,0.2
		c0.3,0.2,0.6,0.5,1,1L1338,30.5z"/>
</g>
<g>
	<polygon class="st8" points="162.5,100.6 162.6,110.7 162.5,133.5 148.5,140.2 8.8,205.8 8.8,28.8 111.1,76.5 	"/>
	<polygon class="st7" points="164.9,101.2 165,101 318,117 319,208 164.6,134 164.6,101.1 	"/>
	<polygon class="st7" points="318,117 165,101 164.9,101.2 164.6,101.1 164.6,101 163.9,100.7 164,3 	"/>
	<polygon class="st8" points="164.6,134 164.6,279.5 164.5,279.4 163.7,133.6 	"/>
	<polygon class="st8" points="164.6,101.1 164.6,134 163.7,133.6 163.7,133.6 163.9,133.5 163.9,100.8 	"/>
	<polygon class="st8" points="164.6,101 164.6,101.1 163.9,100.8 163.9,100.7 	"/>
	<polygon class="st9" points="163.7,133.6 164.5,279.4 9.9,207.3 149.5,140.2 163.7,133.6 	"/>
	<polygon class="st10" points="164,3 163.9,100.7 163.6,100.6 	"/>
	<polygon points="164,3 163.6,100.6 163.5,100.5 163,3.2 	"/>
	<polygon class="st8" points="163.9,100.7 163.9,100.8 163.6,100.6 163.6,100.6 	"/>
	<polygon class="st8" points="163.9,100.8 163.9,133.5 163.7,133.6 163.6,110.7 163.6,100.6 	"/>
	<polygon class="st8" points="163.7,133.6 163.7,133.6 163.7,133.6 	"/>
	<polygon class="st8" points="163.6,110.7 163.7,133.6 163.7,133.6 163.5,133.5 	"/>
	<polygon class="st8" points="163.7,133.6 149.5,140.2 163.5,133.5 	"/>
	<polygon class="st8" points="163.6,100.6 163.6,100.6 163.5,100.6 163.5,100.5 	"/>
	<polygon class="st8" points="163.6,100.6 163.6,110.7 163.5,100.6 	"/>
	<polygon class="st8" points="163.5,100.5 163.5,100.6 112.1,76.5 	"/>
	<polygon points="163,3.2 163.5,100.5 112.1,76.5 9.8,28.6 9.8,27.3 	"/>
	<polygon class="st8" points="149.5,140.2 9.9,207.3 9.8,207.2 9.8,205.8 	"/>
	<polygon points="112.1,76.5 9.8,28.8 9.8,28.6 	"/>
	<line class="st11" x1="165" y1="101" x2="318" y2="117"/>
	<polyline class="st11" points="163,2 163,3.2 163.5,100.5 163.5,100.6 163.6,110.7 163.7,133.6 163.7,133.6 164.5,279.4 
		164.5,279.5 	"/>
	<polyline class="st11" points="9.5,28.5 9.8,28.6 112.1,76.5 163.5,100.6 163.6,100.6 163.9,100.8 164.6,101.1 164.9,101.2 
		165.5,101.5 	"/>
	<polyline class="st11" points="9.5,207.5 9.9,207.3 149.5,140.2 163.5,133.5 	"/>
</g>
</svg>
